<?xml version="1.0" encoding="utf-8"?>
<!-- Generator: Adobe Illustrator 23.0.1, SVG Export Plug-In . SVG Version: 6.00 Build 0)  -->
<svg version="1.1" id="Layer_1" xmlns="http://www.w3.org/2000/svg" xmlns:xlink="http://www.w3.org/1999/xlink" x="0px" y="0px"
	 viewBox="0 0 600 600" style="enable-background:new 0 0 600 600;" xml:space="preserve">
<style type="text/css">
	.st0{fill:#262262;}
	.st1{fill:#8DC63F;}
</style>
<path class="st0" d="M346.03,456.09c-29.91,0-58.03-11.64-79.18-32.8c-12.62-12.62-22.14-28.22-27.52-45.12
	c-12.77-40.11-2.23-83.5,27.52-113.24l5.72,5.72c-27.6,27.59-37.37,67.85-25.53,105.06c5.06,15.89,13.65,29.97,25.53,41.85
	c19.62,19.62,45.71,30.43,73.45,30.43c27.75,0,53.84-10.81,73.46-30.43c19.62-19.62,30.43-45.71,30.43-73.45
	c0-27.75-10.81-53.84-30.43-73.46l5.72-5.72c21.15,21.15,32.8,49.27,32.8,79.18c0,29.9-11.65,58.03-32.8,79.17
	C404.06,444.45,375.94,456.09,346.03,456.09z"/>
<path class="st0" d="M175.27,331.72c-43.66-43.66-43.66-114.7,0-158.36c21.15-21.15,49.27-32.8,79.18-32.8
	c29.91,0,58.03,11.65,79.18,32.8c40.47,40.46,44.01,104.59,8.24,149.16l-6.32-5.06c33.18-41.35,29.89-100.84-7.65-138.38
	c-19.62-19.62-45.71-30.43-73.45-30.43c-27.75,0-53.84,10.81-73.46,30.43c-40.5,40.5-40.5,106.41,0,146.91L175.27,331.72z"/>
<polygon class="st0" points="339.79,362.44 295.27,362.44 295.27,317.92 303.37,317.92 303.37,354.34 339.79,354.34 "/>
<polyline class="st1" points="358.87,327.86 329.85,327.86 329.85,298.84 "/>
<polygon class="st0" points="306.64,275.4 298.54,275.4 298.54,238.97 262.12,238.97 262.12,230.88 306.64,230.88 "/>
<polyline class="st1" points="250.15,261.12 276.39,261.12 276.39,287.36 "/>
<path class="st0" d="M422.11,273.52c-5.92-5.92-9.19-13.8-9.19-22.18c0-8.38,3.26-16.26,9.19-22.18c12.23-12.23,32.13-12.23,44.36,0
	c12.23,12.23,12.23,32.13,0,44.36l-5.72-5.72c9.07-9.07,9.07-23.84,0-32.91c-9.07-9.07-23.84-9.07-32.91,0
	c-4.4,4.4-6.82,10.24-6.82,16.46c0,6.21,2.42,12.06,6.82,16.45L422.11,273.52z"/>
<path class="st0" d="M158.81,379.31c-8.38,0-16.26-3.26-22.18-9.19c-12.22-12.23-12.22-32.13,0-44.36l5.72,5.72
	c-9.07,9.07-9.07,23.84,0,32.92c8.79,8.79,24.12,8.79,32.91,0c9.07-9.07,9.07-23.84,0-32.92l5.72-5.72
	c12.22,12.23,12.22,32.13,0,44.36C175.07,376.04,167.19,379.31,158.81,379.31z"/>
<path class="st0" d="M309.02,600L0,290.97L290.97,0L600,309.02L309.02,600z M13.04,290.97l295.99,295.99l277.94-277.93L290.97,13.04
	L13.04,290.97z"/>
<polygon class="st1" points="235.55,490.22 308.08,562.75 380.61,490.22 "/>
<polygon class="st1" points="364.45,109.77 291.92,37.25 219.39,109.77 "/>
<circle class="st1" cx="444.37" cy="251.11" r="17.2"/>
<circle class="st1" cx="158.57" cy="347.46" r="17.2"/>
</svg>
